<?xml version="1.0" encoding="UTF-8" standalone="no"?>
<!DOCTYPE svg PUBLIC "-//W3C//DTD SVG 1.1//EN"
 "http://www.w3.org/Graphics/SVG/1.1/DTD/svg11.dtd">
<!-- Generated by graphviz version 2.43.0 (0)
 -->
<!-- Title: pastafarianism Pages: 1 -->
<svg width="471pt" height="188pt"
 viewBox="0.00 0.00 471.21 188.00" xmlns="http://www.w3.org/2000/svg" xmlns:xlink="http://www.w3.org/1999/xlink">
<g id="graph0" class="graph" transform="scale(1 1) rotate(0) translate(4 184)">
<title>pastafarianism</title>
<polygon fill="white" stroke="transparent" points="-4,4 -4,-184 467.21,-184 467.21,4 -4,4"/>
<!-- Root -->
<g id="node1" class="node">
<title>Root</title>
<polygon fill="cyan" stroke="black" points="234.65,-154.54 234.65,-169.46 218.84,-180 196.47,-180 180.65,-169.46 180.65,-154.54 196.47,-144 218.84,-144 234.65,-154.54"/>
<text text-anchor="middle" x="207.65" y="-159.8" font-family="Times,serif" font-size="9.00">Root</text>
</g>
<!-- Continue -->
<g id="node2" class="node">
<title>Continue</title>
<ellipse fill="gray" stroke="black" cx="79.65" cy="-90" rx="34.13" ry="18"/>
<text text-anchor="middle" x="79.65" y="-87.8" font-family="Times,serif" font-size="9.00">Continue</text>
</g>
<!-- Root&#45;&gt;Continue -->
<g id="edge1" class="edge">
<title>Root&#45;&gt;Continue</title>
<path fill="none" stroke="black" d="M187.37,-149.91C166.96,-138.75 135.18,-121.37 111.42,-108.37"/>
<polygon fill="black" stroke="black" points="112.88,-105.18 102.43,-103.46 109.52,-111.33 112.88,-105.18"/>
</g>
<!-- Seq Right -->
<g id="node3" class="node">
<title>Seq Right</title>
<polygon fill="orange" stroke="black" points="193.65,-108 131.65,-108 131.65,-72 193.65,-72 193.65,-108"/>
<text text-anchor="middle" x="162.65" y="-87.8" font-family="Times,serif" font-size="9.00">Seq Right</text>
</g>
<!-- Root&#45;&gt;Seq Right -->
<g id="edge2" class="edge">
<title>Root&#45;&gt;Seq Right</title>
<path fill="none" stroke="black" d="M196.53,-143.7C191.3,-135.56 184.95,-125.69 179.17,-116.7"/>
<polygon fill="black" stroke="black" points="182,-114.62 173.65,-108.1 176.11,-118.41 182,-114.62"/>
</g>
<!-- Seq Left -->
<g id="node6" class="node">
<title>Seq Left</title>
<polygon fill="orange" stroke="black" points="280.15,-108 225.15,-108 225.15,-72 280.15,-72 280.15,-108"/>
<text text-anchor="middle" x="252.65" y="-87.8" font-family="Times,serif" font-size="9.00">Seq Left</text>
</g>
<!-- Root&#45;&gt;Seq Left -->
<g id="edge5" class="edge">
<title>Root&#45;&gt;Seq Left</title>
<path fill="none" stroke="black" d="M218.78,-143.7C224.01,-135.56 230.35,-125.69 236.13,-116.7"/>
<polygon fill="black" stroke="black" points="239.19,-118.41 241.66,-108.1 233.3,-114.62 239.19,-118.41"/>
</g>
<!-- Turn Back! MUDDAFUCKA -->
<g id="node9" class="node">
<title>Turn Back! MUDDAFUCKA</title>
<ellipse fill="gray" stroke="black" cx="380.65" cy="-90" rx="82.62" ry="18"/>
<text text-anchor="middle" x="380.65" y="-87.8" font-family="Times,serif" font-size="9.00">Turn Back! MUDDAFUCKA</text>
</g>
<!-- Root&#45;&gt;Turn Back! MUDDAFUCKA -->
<g id="edge8" class="edge">
<title>Root&#45;&gt;Turn Back! MUDDAFUCKA</title>
<path fill="none" stroke="black" d="M230.63,-151.7C256.81,-141.11 300.3,-123.51 333.74,-109.98"/>
<polygon fill="black" stroke="black" points="335.36,-113.1 343.32,-106.11 332.73,-106.61 335.36,-113.1"/>
</g>
<!-- Is Right Empty -->
<g id="node4" class="node">
<title>Is Right Empty</title>
<ellipse fill="gray" stroke="black" cx="49.65" cy="-18" rx="49.8" ry="18"/>
<text text-anchor="middle" x="49.65" y="-15.8" font-family="Times,serif" font-size="9.00">Is Right Empty</text>
</g>
<!-- Seq Right&#45;&gt;Is Right Empty -->
<g id="edge3" class="edge">
<title>Seq Right&#45;&gt;Is Right Empty</title>
<path fill="none" stroke="black" d="M135.01,-71.88C119.13,-62.04 99.1,-49.63 82.43,-39.31"/>
<polygon fill="black" stroke="black" points="83.91,-36.1 73.56,-33.81 80.22,-42.05 83.91,-36.1"/>
</g>
<!-- Turn Right -->
<g id="node5" class="node">
<title>Turn Right</title>
<ellipse fill="gray" stroke="black" cx="156.65" cy="-18" rx="39.02" ry="18"/>
<text text-anchor="middle" x="156.65" y="-15.8" font-family="Times,serif" font-size="9.00">Turn Right</text>
</g>
<!-- Seq Right&#45;&gt;Turn Right -->
<g id="edge4" class="edge">
<title>Seq Right&#45;&gt;Turn Right</title>
<path fill="none" stroke="black" d="M161.17,-71.7C160.51,-63.98 159.71,-54.71 158.98,-46.11"/>
<polygon fill="black" stroke="black" points="162.46,-45.77 158.12,-36.1 155.49,-46.37 162.46,-45.77"/>
</g>
<!-- Is Left Empty -->
<g id="node7" class="node">
<title>Is Left Empty</title>
<ellipse fill="gray" stroke="black" cx="259.65" cy="-18" rx="45.72" ry="18"/>
<text text-anchor="middle" x="259.65" y="-15.8" font-family="Times,serif" font-size="9.00">Is Left Empty</text>
</g>
<!-- Seq Left&#45;&gt;Is Left Empty -->
<g id="edge6" class="edge">
<title>Seq Left&#45;&gt;Is Left Empty</title>
<path fill="none" stroke="black" d="M254.38,-71.7C255.15,-63.98 256.08,-54.71 256.94,-46.11"/>
<polygon fill="black" stroke="black" points="260.43,-46.4 257.94,-36.1 253.46,-45.71 260.43,-46.4"/>
</g>
<!-- Turn Left -->
<g id="node8" class="node">
<title>Turn Left</title>
<ellipse fill="gray" stroke="black" cx="357.65" cy="-18" rx="34.78" ry="18"/>
<text text-anchor="middle" x="357.65" y="-15.8" font-family="Times,serif" font-size="9.00">Turn Left</text>
</g>
<!-- Seq Left&#45;&gt;Turn Left -->
<g id="edge7" class="edge">
<title>Seq Left&#45;&gt;Turn Left</title>
<path fill="none" stroke="black" d="M278.34,-71.88C293.6,-61.7 313,-48.77 328.8,-38.24"/>
<polygon fill="black" stroke="black" points="330.77,-41.13 337.15,-32.67 326.89,-35.3 330.77,-41.13"/>
</g>
</g>
</svg>
